# xmcd
#
# Track frame offsets:
#	150
#	17874
#	31820
#	47518
#	63976
#	79775
#	96180
#	110851
#	128603
#	142094
#	155857
#	169063
#	183666
#	198981
#	226044
#
# Disc length: 3338
#
# Revision: 2
# Processed by: cddbd v1.5.1PL0 Copyright (c) Steve Scherf et al.
# Submitted via: audiograbber 1.83.01
# Normalized: r1:DSETVAR1
#
DISCID=ca0d080f
DTITLE=Various Artist - Goldene Schlagerparade 1/2004
DYEAR=2004
DGENRE=Schlager
TTITLE0=Andrea Berg - Es war nur eine Nacht
TTITLE1=Andrea Jürgens - Du hast mich belogen
TTITLE2=Nino de Angelo - Jenseits von Eden 2003
TTITLE3=Vicky Leandros - Erinner' dich an die Träume
TTITLE4=Seer - Hoamatgfühl
TTITLE5=Wolfgang Petry - Glaubst du ich bin blöd?
TTITLE6=Performer Meilenstein - Jetzt oder nie mehr
TTITLE7=Mary Roos - In der Mitte meines Lebens
TTITLE8=Tattoo - Komm zurück
TTITLE9=Eva Wallner - Herzklopfen
TTITLE10=Steirerbluat - Nicht mal berühr'n
TTITLE11=Wörtherseer - Es ist Liebe
TTITLE12=Nockalm Quintett - Bleib eine Rose
TTITLE13=Howard Carpendale - Du bist das Letzte
TTITLE14=data - Daten-CD
EXTD=
EXTT0=
EXTT1=
EXTT2=
EXTT3=
EXTT4=
EXTT5=
EXTT6=
EXTT7=
EXTT8=
EXTT9=
EXTT10=
EXTT11=
EXTT12=
EXTT13=
EXTT14=
PLAYORDER=
